ply
format ascii 1.0
comment Created by Blender 2.76 (sub 0) - www.blender.org, source file: ''
element vertex 318
property float x
property float y
property float z
property float nx
property float ny
property float nz
element face 196
property list uchar uint vertex_indices
end_header
0.000000 0.000000 1.000000 0.062788 0.000000 0.998027
0.125333 0.000000 0.992115 0.062788 0.000000 0.998027
0.125333 1.000000 0.992115 0.062788 0.000000 0.998027
0.125333 0.000000 0.992115 0.187385 0.000000 0.982287
0.248690 0.000000 0.968583 0.187385 0.000000 0.982287
0.248690 1.000000 0.968583 0.187385 0.000000 0.982287
0.248690 0.000000 0.968583 0.309018 0.000000 0.951056
0.368125 0.000000 0.929776 0.309018 0.000000 0.951056
0.368125 1.000000 0.929776 0.309018 0.000000 0.951056
0.368125 0.000000 0.929776 0.425774 0.000000 0.904829
0.481754 0.000000 0.876307 0.425774 0.000000 0.904829
0.481754 1.000000 0.876307 0.425774 0.000000 0.904829
0.481754 0.000000 0.876307 0.535831 0.000000 0.844325
0.587785 0.000000 0.809017 0.535831 0.000000 0.844325
0.587785 1.000000 0.809017 0.535831 0.000000 0.844325
0.587785 0.000000 0.809017 0.637422 0.000000 0.770515
0.684547 0.000000 0.728969 0.637422 0.000000 0.770515
0.684547 1.000000 0.728969 0.637422 0.000000 0.770515
0.684547 0.000000 0.728969 0.728971 0.000000 0.684545
0.770513 0.000000 0.637424 0.728971 0.000000 0.684545
0.770513 1.000000 0.637424 0.728971 0.000000 0.684545
0.770513 0.000000 0.637424 0.809015 0.000000 0.587788
0.844328 0.000000 0.535827 0.809015 0.000000 0.587788
0.844328 1.000000 0.535827 0.809015 0.000000 0.587788
0.844328 0.000000 0.535827 0.876308 0.000000 0.481751
0.904827 0.000000 0.425779 0.876308 0.000000 0.481751
0.904827 1.000000 0.425779 0.876308 0.000000 0.481751
0.904827 0.000000 0.425779 0.929775 0.000000 0.368129
0.951057 0.000000 0.309017 0.929775 0.000000 0.368129
0.951057 1.000000 0.309017 0.929775 0.000000 0.368129
0.951057 0.000000 0.309017 0.968585 0.000000 0.248684
0.982287 0.000000 0.187381 0.968585 0.000000 0.248684
0.982287 1.000000 0.187381 0.968585 0.000000 0.248684
0.982287 0.000000 0.187381 0.992114 0.000000 0.125337
0.998027 0.000000 0.062790 0.992114 0.000000 0.125337
0.998027 1.000000 0.062790 0.992114 0.000000 0.125337
0.998027 0.000000 0.062790 1.000000 0.000000 -0.000000
0.998027 0.000000 -0.062791 1.000000 0.000000 -0.000000
0.998027 1.000000 -0.062791 1.000000 0.000000 -0.000000
0.998027 0.000000 -0.062791 0.992114 0.000000 -0.125337
0.982287 0.000000 -0.187382 0.992114 0.000000 -0.125337
0.982287 1.000000 -0.187382 0.992114 0.000000 -0.125337
0.982287 0.000000 -0.187382 0.968582 0.000000 -0.248693
0.951056 0.000000 -0.309017 0.968582 0.000000 -0.248693
0.951056 1.000000 -0.309017 0.968582 0.000000 -0.248693
0.951056 0.000000 -0.309017 0.929778 0.000000 -0.368119
0.904827 0.000000 -0.425780 0.929778 0.000000 -0.368119
0.904827 1.000000 -0.425780 0.929778 0.000000 -0.368119
0.904827 0.000000 -0.425780 0.876306 0.000000 -0.481755
0.844328 0.000000 -0.535827 0.876306 0.000000 -0.481755
0.844328 1.000000 -0.535827 0.876306 0.000000 -0.481755
0.844328 0.000000 -0.535827 0.809015 0.000000 -0.587788
0.770513 0.000000 -0.637424 0.809015 0.000000 -0.587788
0.770513 1.000000 -0.637424 0.809015 0.000000 -0.587788
0.770513 0.000000 -0.637424 0.728971 0.000000 -0.684545
0.684547 0.000000 -0.728969 0.728971 0.000000 -0.684545
0.684547 1.000000 -0.728969 0.728971 0.000000 -0.684545
0.684547 0.000000 -0.728969 0.637422 0.000000 -0.770515
0.587785 0.000000 -0.809017 0.637422 0.000000 -0.770515
0.587785 1.000000 -0.809017 0.637422 0.000000 -0.770515
0.587785 0.000000 -0.809017 0.535827 0.000000 -0.844328
0.481753 0.000000 -0.876307 0.535827 0.000000 -0.844328
0.481753 1.000000 -0.876307 0.535827 0.000000 -0.844328
0.481753 0.000000 -0.876307 0.425781 0.000000 -0.904826
0.368124 0.000000 -0.929777 0.425781 0.000000 -0.904826
0.368124 1.000000 -0.929777 0.425781 0.000000 -0.904826
0.368124 0.000000 -0.929777 0.309011 0.000000 -0.951058
0.248689 0.000000 -0.968583 0.309011 0.000000 -0.951058
0.248689 1.000000 -0.968583 0.309011 0.000000 -0.951058
0.248689 0.000000 -0.968583 0.187385 0.000000 -0.982287
0.125332 0.000000 -0.992115 0.187385 0.000000 -0.982287
0.125332 1.000000 -0.992115 0.187385 0.000000 -0.982287
0.125332 0.000000 -0.992115 0.062788 0.000000 -0.998027
-0.000001 0.000000 -1.000000 0.062788 0.000000 -0.998027
-0.000001 1.000000 -1.000000 0.062788 0.000000 -0.998027
-0.000001 0.000000 -1.000000 -0.062788 -0.000000 -0.998027
-0.125334 0.000000 -0.992115 -0.062788 -0.000000 -0.998027
-0.125334 1.000000 -0.992115 -0.062788 -0.000000 -0.998027
-0.125334 0.000000 -0.992115 -0.187385 -0.000000 -0.982287
-0.248691 0.000000 -0.968583 -0.187385 -0.000000 -0.982287
-0.248691 1.000000 -0.968583 -0.187385 -0.000000 -0.982287
-0.248691 0.000000 -0.968583 -0.309021 -0.000000 -0.951055
-0.368125 0.000000 -0.929776 -0.309021 -0.000000 -0.951055
-0.368125 1.000000 -0.929776 -0.309021 -0.000000 -0.951055
-0.368125 0.000000 -0.929776 -0.425778 -0.000000 -0.904828
-0.481755 0.000000 -0.876306 -0.425778 -0.000000 -0.904828
-0.481755 1.000000 -0.876306 -0.425778 -0.000000 -0.904828
-0.481755 0.000000 -0.876306 -0.535831 -0.000000 -0.844326
-0.587786 0.000000 -0.809016 -0.535831 -0.000000 -0.844326
-0.587786 1.000000 -0.809016 -0.535831 -0.000000 -0.844326
-0.587786 0.000000 -0.809016 -0.637422 -0.000000 -0.770515
-0.684548 0.000000 -0.728968 -0.637422 -0.000000 -0.770515
-0.684548 1.000000 -0.728968 -0.637422 -0.000000 -0.770515
-0.684548 0.000000 -0.728968 -0.728971 -0.000000 -0.684545
-0.770514 0.000000 -0.637423 -0.728971 -0.000000 -0.684545
-0.770514 1.000000 -0.637423 -0.728971 -0.000000 -0.684545
-0.770514 0.000000 -0.637423 -0.809015 -0.000000 -0.587788
-0.844329 0.000000 -0.535826 -0.809015 -0.000000 -0.587788
-0.844329 1.000000 -0.535826 -0.809015 -0.000000 -0.587788
-0.844329 0.000000 -0.535826 -0.876308 -0.000000 -0.481751
-0.904828 0.000000 -0.425778 -0.876308 -0.000000 -0.481751
-0.904828 1.000000 -0.425778 -0.876308 -0.000000 -0.481751
-0.904828 0.000000 -0.425778 -0.929777 -0.000000 -0.368122
-0.951057 0.000000 -0.309016 -0.929777 -0.000000 -0.368122
-0.951057 1.000000 -0.309016 -0.929777 -0.000000 -0.368122
-0.951057 0.000000 -0.309016 -0.968583 -0.000000 -0.248691
-0.982288 0.000000 -0.187380 -0.968583 -0.000000 -0.248691
-0.982288 1.000000 -0.187380 -0.968583 -0.000000 -0.248691
-0.982288 0.000000 -0.187380 -0.992115 -0.000000 -0.125329
-0.998027 0.000000 -0.062789 -0.992115 -0.000000 -0.125329
-0.998027 1.000000 -0.062789 -0.992115 -0.000000 -0.125329
-0.998027 0.000000 -0.062789 -1.000000 -0.000000 -0.000000
-0.998027 0.000000 0.062792 -1.000000 -0.000000 -0.000000
-0.998027 1.000000 0.062792 -1.000000 -0.000000 -0.000000
-0.998027 0.000000 0.062792 -0.992114 0.000000 0.125337
-0.982287 0.000000 0.187383 -0.992114 0.000000 0.125337
-0.982287 1.000000 0.187383 -0.992114 0.000000 0.125337
-0.982287 1.000000 0.187383 -0.968582 0.000000 0.248693
-0.982287 0.000000 0.187383 -0.968582 0.000000 0.248693
-0.951056 0.000000 0.309018 -0.968582 0.000000 0.248693
-0.951056 1.000000 0.309019 -0.929776 -0.000000 0.368126
-0.951056 0.000000 0.309018 -0.929776 -0.000000 0.368126
-0.904826 0.000000 0.425781 -0.929776 -0.000000 0.368126
-0.904826 0.000000 0.425781 -0.876306 0.000000 0.481755
-0.844327 0.000000 0.535828 -0.876306 0.000000 0.481755
-0.844327 1.000000 0.535828 -0.876306 0.000000 0.481755
-0.844327 0.000000 0.535828 -0.809015 0.000000 0.587788
-0.770512 0.000000 0.637425 -0.809015 0.000000 0.587788
-0.770512 1.000000 0.637425 -0.809015 0.000000 0.587788
-0.770512 0.000000 0.637425 -0.728971 0.000000 0.684545
-0.684546 0.000000 0.728970 -0.728971 0.000000 0.684545
-0.684546 1.000000 0.728970 -0.728971 0.000000 0.684545
-0.684546 0.000000 0.728970 -0.637422 0.000000 0.770515
-0.587784 0.000000 0.809018 -0.637422 0.000000 0.770515
-0.587784 1.000000 0.809018 -0.637422 0.000000 0.770515
-0.587784 0.000000 0.809018 -0.535827 0.000000 0.844328
-0.481752 0.000000 0.876308 -0.535827 0.000000 0.844328
-0.481752 1.000000 0.876308 -0.535827 0.000000 0.844328
-0.481752 0.000000 0.876308 -0.425774 0.000000 0.904829
-0.368123 0.000000 0.929777 -0.425774 0.000000 0.904829
-0.368123 1.000000 0.929777 -0.425774 0.000000 0.904829
-0.368123 0.000000 0.929777 -0.309018 0.000000 0.951056
-0.248688 0.000000 0.968584 -0.309018 0.000000 0.951056
-0.248688 1.000000 0.968584 -0.309018 0.000000 0.951056
0.248690 0.000000 0.968583 0.000000 -1.000000 0.000000
0.125333 0.000000 0.992115 0.000000 -1.000000 0.000000
0.000000 0.000000 1.000000 0.000000 -1.000000 0.000000
-0.125331 0.000000 0.992115 0.000000 -1.000000 0.000000
-0.248688 0.000000 0.968584 0.000000 -1.000000 0.000000
-0.368123 0.000000 0.929777 0.000000 -1.000000 0.000000
-0.481752 0.000000 0.876308 0.000000 -1.000000 0.000000
-0.587784 0.000000 0.809018 0.000000 -1.000000 0.000000
-0.684546 0.000000 0.728970 0.000000 -1.000000 0.000000
-0.684546 0.000000 0.728970 0.000000 -1.000000 0.000000
-0.770512 0.000000 0.637425 0.000000 -1.000000 0.000000
-0.844327 0.000000 0.535828 0.000000 -1.000000 0.000000
-0.844327 0.000000 0.535828 0.000000 -1.000000 0.000000
-0.904826 0.000000 0.425781 0.000000 -1.000000 0.000000
-0.951056 0.000000 0.309018 0.000000 -1.000000 0.000000
-0.982287 0.000000 0.187383 0.000000 -1.000000 0.000000
-0.998027 0.000000 0.062792 0.000000 -1.000000 0.000000
-0.998027 0.000000 -0.062789 0.000000 -1.000000 0.000000
-0.982288 0.000000 -0.187380 0.000000 -1.000000 0.000000
-0.982288 0.000000 -0.187380 0.000000 -1.000000 0.000000
-0.951057 0.000000 -0.309016 0.000000 -1.000000 0.000000
-0.904828 0.000000 -0.425778 0.000000 -1.000000 0.000000
-0.904828 0.000000 -0.425778 0.000000 -1.000000 0.000000
-0.844329 0.000000 -0.535826 0.000000 -1.000000 0.000000
-0.770514 0.000000 -0.637423 0.000000 -1.000000 0.000000
-0.684548 0.000000 -0.728968 0.000000 -1.000000 0.000000
-0.587786 0.000000 -0.809016 0.000000 -1.000000 0.000000
-0.481755 0.000000 -0.876306 0.000000 -1.000000 0.000000
-0.368125 0.000000 -0.929776 0.000000 -1.000000 0.000000
-0.248691 0.000000 -0.968583 0.000000 -1.000000 0.000000
-0.125334 0.000000 -0.992115 0.000000 -1.000000 0.000000
-0.000001 0.000000 -1.000000 -0.000000 -1.000000 0.000000
0.125332 0.000000 -0.992115 -0.000000 -1.000000 0.000000
0.248689 0.000000 -0.968583 0.000000 -1.000000 0.000000
0.368124 0.000000 -0.929777 0.000000 -1.000000 0.000000
0.481753 0.000000 -0.876307 0.000000 -1.000000 0.000000
0.587785 0.000000 -0.809017 0.000000 -1.000000 0.000000
0.684547 0.000000 -0.728969 0.000000 -1.000000 0.000000
0.770513 0.000000 -0.637424 0.000000 -1.000000 0.000000
0.844328 0.000000 -0.535827 0.000000 -1.000000 0.000000
0.904827 0.000000 -0.425780 0.000000 -1.000000 0.000000
0.904827 0.000000 -0.425780 0.000000 -1.000000 0.000000
0.951056 0.000000 -0.309017 0.000000 -1.000000 0.000000
0.982287 0.000000 -0.187382 0.000000 -1.000000 0.000000
0.982287 0.000000 -0.187382 0.000000 -1.000000 -0.000000
0.998027 0.000000 -0.062791 0.000000 -1.000000 -0.000000
0.998027 0.000000 0.062790 0.000000 -1.000000 -0.000000
0.982287 0.000000 0.187381 0.000000 -1.000000 0.000000
0.951057 0.000000 0.309017 0.000000 -1.000000 0.000000
0.904827 0.000000 0.425779 0.000000 -1.000000 0.000000
0.844328 0.000000 0.535827 0.000000 -1.000000 0.000000
0.844328 0.000000 0.535827 0.000000 -1.000000 0.000000
0.770513 0.000000 0.637424 0.000000 -1.000000 0.000000
0.684547 0.000000 0.728969 0.000000 -1.000000 0.000000
0.684547 0.000000 0.728969 0.000000 -1.000000 0.000000
0.587785 0.000000 0.809017 0.000000 -1.000000 0.000000
0.481754 0.000000 0.876307 0.000000 -1.000000 0.000000
0.368125 0.000000 0.929776 0.000000 -1.000000 0.000000
-0.684546 0.000000 0.728970 0.000000 -1.000000 0.000000
-0.844327 0.000000 0.535828 0.000000 -1.000000 0.000000
-0.951056 0.000000 0.309018 0.000000 -1.000000 0.000000
0.844328 0.000000 0.535827 0.000000 -1.000000 0.000000
0.684547 0.000000 0.728969 0.000000 -1.000000 0.000000
0.481754 0.000000 0.876307 0.000000 -1.000000 0.000000
0.000000 1.000000 1.000000 -0.062789 0.000000 0.998027
-0.125331 1.000000 0.992115 -0.062789 0.000000 0.998027
-0.125331 0.000000 0.992115 -0.062789 0.000000 0.998027
-0.248688 0.000000 0.968584 -0.187377 0.000000 0.982288
-0.125331 0.000000 0.992115 -0.187377 0.000000 0.982288
-0.125331 1.000000 0.992115 -0.187377 0.000000 0.982288
-0.125331 1.000000 0.992115 0.000000 1.000000 0.000000
0.000000 1.000000 1.000000 0.000000 1.000000 0.000000
0.125333 1.000000 0.992115 0.000000 1.000000 0.000000
0.248690 1.000000 0.968583 0.000000 1.000000 0.000000
0.368125 1.000000 0.929776 0.000000 1.000000 0.000000
0.481754 1.000000 0.876307 0.000000 1.000000 0.000000
0.587785 1.000000 0.809017 0.000000 1.000000 0.000000
0.684547 1.000000 0.728969 0.000000 1.000000 0.000000
0.770513 1.000000 0.637424 0.000000 1.000000 0.000000
0.844328 1.000000 0.535827 0.000000 1.000000 0.000000
0.904827 1.000000 0.425779 0.000000 1.000000 0.000000
0.951057 1.000000 0.309017 0.000000 1.000000 0.000000
0.982287 1.000000 0.187381 0.000000 1.000000 0.000000
0.998027 1.000000 0.062790 0.000000 1.000000 -0.000000
0.998027 1.000000 -0.062791 0.000000 1.000000 -0.000000
0.982287 1.000000 -0.187382 0.000000 1.000000 0.000000
0.951056 1.000000 -0.309017 0.000000 1.000000 0.000000
0.904827 1.000000 -0.425780 0.000000 1.000000 0.000000
0.844328 1.000000 -0.535827 0.000000 1.000000 0.000000
0.770513 1.000000 -0.637424 0.000000 1.000000 0.000000
0.684547 1.000000 -0.728969 0.000000 1.000000 0.000000
0.587785 1.000000 -0.809017 0.000000 1.000000 0.000000
0.481753 1.000000 -0.876307 0.000000 1.000000 0.000000
0.368124 1.000000 -0.929777 0.000000 1.000000 0.000000
0.248689 1.000000 -0.968583 0.000000 1.000000 0.000000
0.125332 1.000000 -0.992115 0.000000 1.000000 0.000000
-0.000001 1.000000 -1.000000 0.000000 1.000000 0.000000
-0.125334 1.000000 -0.992115 0.000000 1.000000 0.000000
-0.248691 1.000000 -0.968583 0.000000 1.000000 0.000000
-0.368125 1.000000 -0.929776 0.000000 1.000000 0.000000
-0.481755 1.000000 -0.876306 0.000000 1.000000 0.000000
-0.587786 1.000000 -0.809016 0.000000 1.000000 0.000000
-0.684548 1.000000 -0.728968 0.000000 1.000000 0.000000
-0.770514 1.000000 -0.637423 0.000000 1.000000 0.000000
-0.844329 1.000000 -0.535826 0.000000 1.000000 0.000000
-0.904828 1.000000 -0.425778 0.000000 1.000000 0.000000
-0.951057 1.000000 -0.309016 0.000000 1.000000 0.000000
-0.982288 1.000000 -0.187380 0.000000 1.000000 0.000000
-0.998027 1.000000 -0.062789 0.000000 1.000000 0.000000
-0.998027 1.000000 0.062792 0.000000 1.000000 0.000000
-0.982287 1.000000 0.187383 0.000000 1.000000 0.000000
-0.951056 1.000000 0.309019 0.000000 1.000000 0.000000
-0.904826 1.000000 0.425781 0.000000 1.000000 0.000000
-0.844327 1.000000 0.535828 0.000000 1.000000 0.000000
-0.770512 1.000000 0.637425 0.000000 1.000000 0.000000
-0.684546 1.000000 0.728970 0.000000 1.000000 0.000000
-0.587784 1.000000 0.809018 0.000000 1.000000 0.000000
-0.481752 1.000000 0.876308 0.000000 1.000000 0.000000
-0.368123 1.000000 0.929777 0.000000 1.000000 0.000000
-0.248688 1.000000 0.968584 0.000000 1.000000 0.000000
0.000000 1.000000 1.000000 0.062788 -0.000000 0.998027
0.125333 1.000000 0.992115 0.187385 -0.000000 0.982287
0.248690 1.000000 0.968583 0.309018 -0.000000 0.951056
0.368125 1.000000 0.929776 0.425774 -0.000000 0.904829
0.481754 1.000000 0.876307 0.535831 -0.000000 0.844325
0.587785 1.000000 0.809017 0.637422 -0.000000 0.770515
0.684547 1.000000 0.728969 0.728971 -0.000000 0.684545
0.770513 1.000000 0.637424 0.809015 -0.000000 0.587788
0.844328 1.000000 0.535827 0.876308 -0.000000 0.481751
0.904827 1.000000 0.425779 0.929775 -0.000000 0.368129
0.951057 1.000000 0.309017 0.968585 -0.000000 0.248684
0.982287 1.000000 0.187381 0.992114 -0.000000 0.125337
0.998027 1.000000 0.062790 1.000000 0.000000 -0.000000
0.998027 1.000000 -0.062791 0.992114 0.000000 -0.125337
0.982287 1.000000 -0.187382 0.968582 0.000000 -0.248693
0.951056 1.000000 -0.309017 0.929778 0.000000 -0.368119
0.904827 1.000000 -0.425780 0.876306 0.000000 -0.481755
0.844328 1.000000 -0.535827 0.809015 0.000000 -0.587788
0.770513 1.000000 -0.637424 0.728971 0.000000 -0.684545
0.684547 1.000000 -0.728969 0.637422 0.000000 -0.770515
0.587785 1.000000 -0.809017 0.535827 0.000000 -0.844328
0.481753 1.000000 -0.876307 0.425781 0.000000 -0.904826
0.368124 1.000000 -0.929777 0.309011 0.000000 -0.951058
0.248689 1.000000 -0.968583 0.187385 0.000000 -0.982287
0.125332 1.000000 -0.992115 0.062788 0.000000 -0.998027
-0.000001 1.000000 -1.000000 -0.062788 0.000000 -0.998027
-0.125334 1.000000 -0.992115 -0.187385 0.000000 -0.982287
-0.248691 1.000000 -0.968583 -0.309021 0.000000 -0.951055
-0.368125 1.000000 -0.929776 -0.425778 0.000000 -0.904828
-0.481755 1.000000 -0.876306 -0.535831 0.000000 -0.844326
-0.587786 1.000000 -0.809016 -0.637422 0.000000 -0.770515
-0.684548 1.000000 -0.728968 -0.728971 0.000000 -0.684545
-0.770514 1.000000 -0.637423 -0.809015 0.000000 -0.587788
-0.844329 1.000000 -0.535826 -0.876308 0.000000 -0.481751
-0.904828 1.000000 -0.425778 -0.929777 0.000000 -0.368122
-0.951057 1.000000 -0.309016 -0.968583 0.000000 -0.248691
-0.982288 1.000000 -0.187380 -0.992115 0.000000 -0.125329
-0.998027 1.000000 -0.062789 -1.000000 0.000000 -0.000000
-0.998027 1.000000 0.062792 -0.992114 0.000000 0.125337
-0.951056 1.000000 0.309019 -0.968583 -0.000000 0.248691
-0.982287 1.000000 0.187383 -0.968583 -0.000000 0.248691
-0.951056 0.000000 0.309018 -0.968583 -0.000000 0.248691
-0.904826 1.000000 0.425781 -0.929775 0.000000 0.368129
-0.951056 1.000000 0.309019 -0.929775 0.000000 0.368129
-0.904826 0.000000 0.425781 -0.929775 0.000000 0.368129
-0.904826 1.000000 0.425781 -0.876306 0.000000 0.481755
-0.844327 1.000000 0.535828 -0.809015 0.000000 0.587788
-0.770512 1.000000 0.637425 -0.728971 0.000000 0.684545
-0.684546 1.000000 0.728970 -0.637422 0.000000 0.770515
-0.587784 1.000000 0.809018 -0.535827 0.000000 0.844328
-0.481752 1.000000 0.876308 -0.425774 0.000000 0.904829
-0.368123 1.000000 0.929777 -0.309018 0.000000 0.951056
0.000000 0.000000 1.000000 -0.062789 0.000000 0.998027
-0.248688 1.000000 0.968584 -0.187377 0.000000 0.982288
3 0 1 2
3 3 4 5
3 6 7 8
3 9 10 11
3 12 13 14
3 15 16 17
3 18 19 20
3 21 22 23
3 24 25 26
3 27 28 29
3 30 31 32
3 33 34 35
3 36 37 38
3 39 40 41
3 42 43 44
3 45 46 47
3 48 49 50
3 51 52 53
3 54 55 56
3 57 58 59
3 60 61 62
3 63 64 65
3 66 67 68
3 69 70 71
3 72 73 74
3 75 76 77
3 78 79 80
3 81 82 83
3 84 85 86
3 87 88 89
3 90 91 92
3 93 94 95
3 96 97 98
3 99 100 101
3 102 103 104
3 105 106 107
3 108 109 110
3 111 112 113
3 114 115 116
3 117 118 119
3 120 121 122
3 123 124 125
3 126 127 128
3 129 130 131
3 132 133 134
3 135 136 137
3 138 139 140
3 141 142 143
3 144 145 146
3 146 147 148
3 148 149 150
3 150 151 152
3 153 154 155
3 156 157 158
3 158 159 160
3 160 161 162
3 163 164 165
3 166 167 168
3 168 169 170
3 170 171 172
3 172 173 174
3 174 175 176
3 176 177 178
3 178 179 180
3 180 181 182
3 182 183 184
3 185 186 187
3 188 189 190
3 190 191 192
3 192 193 194
3 195 196 197
3 198 199 200
3 200 201 144
3 144 146 148
3 148 150 152
3 202 203 204
3 158 160 162
3 162 166 168
3 168 170 172
3 172 174 176
3 176 178 180
3 180 182 184
3 184 188 190
3 190 192 194
3 205 206 207
3 200 144 148
3 148 152 158
3 158 162 168
3 168 172 176
3 176 180 184
3 184 190 194
3 194 200 148
3 148 158 168
3 168 176 184
3 184 194 148
3 148 168 184
3 208 209 210
3 211 212 213
3 214 215 216
3 216 217 218
3 218 219 220
3 220 221 222
3 222 223 224
3 224 225 226
3 226 227 228
3 228 229 230
3 230 231 232
3 232 233 234
3 234 235 236
3 236 237 238
3 238 239 240
3 240 241 242
3 242 243 244
3 244 245 246
3 246 247 248
3 248 249 250
3 250 251 252
3 252 253 254
3 254 255 256
3 256 257 258
3 258 259 260
3 260 261 262
3 262 263 214
3 214 216 218
3 218 220 222
3 222 224 226
3 226 228 230
3 230 232 234
3 234 236 238
3 238 240 242
3 242 244 246
3 246 248 250
3 250 252 254
3 254 256 258
3 258 260 262
3 262 214 218
3 218 222 226
3 226 230 234
3 234 238 242
3 242 246 250
3 250 254 258
3 258 262 218
3 218 226 234
3 234 242 250
3 250 258 218
3 218 234 250
3 264 0 2
3 265 3 5
3 266 6 8
3 267 9 11
3 268 12 14
3 269 15 17
3 270 18 20
3 271 21 23
3 272 24 26
3 273 27 29
3 274 30 32
3 275 33 35
3 276 36 38
3 277 39 41
3 278 42 44
3 279 45 47
3 280 48 50
3 281 51 53
3 282 54 56
3 283 57 59
3 284 60 62
3 285 63 65
3 286 66 68
3 287 69 71
3 288 72 74
3 289 75 77
3 290 78 80
3 291 81 83
3 292 84 86
3 293 87 89
3 294 90 92
3 295 93 95
3 296 96 98
3 297 99 101
3 298 102 104
3 299 105 107
3 300 108 110
3 301 111 113
3 302 114 116
3 303 304 305
3 306 307 308
3 309 123 125
3 310 126 128
3 311 129 131
3 312 132 134
3 313 135 137
3 314 138 140
3 315 141 143
3 316 208 210
3 317 211 213
