ply
format ascii 1.0
comment Created by Bryan Moreno in blender source file: ''
element vertex 200
property float x
property float y
property float z
property float nx
property float ny
property float nz
element face 98
property list uchar uint vertex_indices
end_header
-0.248688 0.000000 -0.968584 -0.183755 0.195744 -0.963285
0.000000 5.000000 0.000000 -0.183755 0.195744 -0.963285
-0.125331 0.000000 -0.992115 -0.183755 0.195744 -0.963285
0.000000 0.000000 -1.000000 0.061575 0.195744 -0.978720
0.000000 5.000000 0.000000 0.061575 0.195744 -0.978720
0.125333 0.000000 -0.992115 0.061575 0.195744 -0.978720
-0.368123 0.000000 -0.929777 -0.303037 0.195744 -0.932659
0.000000 5.000000 0.000000 -0.303037 0.195744 -0.932659
-0.248688 0.000000 -0.968584 -0.303037 0.195744 -0.932659
-0.481752 0.000000 -0.876308 -0.417541 0.195744 -0.887324
0.000000 5.000000 0.000000 -0.417541 0.195744 -0.887324
-0.368123 0.000000 -0.929777 -0.417541 0.195744 -0.887324
-0.587784 0.000000 -0.809018 -0.525459 0.195744 -0.827996
0.000000 5.000000 0.000000 -0.525459 0.195744 -0.827996
-0.481752 0.000000 -0.876308 -0.525459 0.195744 -0.827996
-0.684546 0.000000 -0.728970 -0.625092 0.195744 -0.755609
0.000000 5.000000 0.000000 -0.625092 0.195744 -0.755609
-0.587784 0.000000 -0.809018 -0.625092 0.195744 -0.755609
-0.770512 0.000000 -0.637425 -0.714866 0.195744 -0.671306
0.000000 5.000000 0.000000 -0.714866 0.195744 -0.671306
-0.684546 0.000000 -0.728970 -0.714866 0.195744 -0.671306
-0.844327 0.000000 -0.535828 -0.793365 0.195744 -0.576416
0.000000 5.000000 0.000000 -0.793365 0.195744 -0.576416
-0.770512 0.000000 -0.637425 -0.793365 0.195744 -0.576416
-0.904826 0.000000 -0.425781 -0.859354 0.195744 -0.472435
0.000000 5.000000 0.000000 -0.859354 0.195744 -0.472435
-0.844327 0.000000 -0.535828 -0.859354 0.195744 -0.472435
-0.951056 0.000000 -0.309019 -0.911789 0.195744 -0.361005
0.000000 5.000000 0.000000 -0.911789 0.195744 -0.361005
-0.904826 0.000000 -0.425781 -0.911789 0.195744 -0.361005
-0.982287 0.000000 -0.187383 -0.949845 0.195744 -0.243881
0.000000 5.000000 0.000000 -0.949845 0.195744 -0.243881
-0.951056 0.000000 -0.309019 -0.949845 0.195744 -0.243881
-0.998027 0.000000 -0.062792 -0.972922 0.195744 -0.122910
0.000000 5.000000 0.000000 -0.972922 0.195744 -0.122910
-0.982287 0.000000 -0.187383 -0.972922 0.195744 -0.122910
-0.998027 0.000000 0.062789 -0.980655 0.195744 -0.000001
0.000000 5.000000 0.000000 -0.980655 0.195744 -0.000001
-0.998027 0.000000 -0.062792 -0.980655 0.195744 -0.000001
-0.982288 0.000000 0.187380 -0.972922 0.195744 0.122907
0.000000 5.000000 0.000000 -0.972922 0.195744 0.122907
-0.998027 0.000000 0.062789 -0.972922 0.195744 0.122907
-0.951057 0.000000 0.309016 -0.949846 0.195744 0.243878
0.000000 5.000000 0.000000 -0.949846 0.195744 0.243878
-0.982288 0.000000 0.187380 -0.949846 0.195744 0.243878
-0.904828 0.000000 0.425778 -0.911791 0.195744 0.361002
0.000000 5.000000 0.000000 -0.911791 0.195744 0.361002
-0.951057 0.000000 0.309016 -0.911791 0.195744 0.361002
-0.844329 0.000000 0.535826 -0.859355 0.195744 0.472433
0.000000 5.000000 0.000000 -0.859355 0.195744 0.472433
-0.904828 0.000000 0.425778 -0.859355 0.195744 0.472433
-0.770514 0.000000 0.637423 -0.793367 0.195744 0.576414
0.000000 5.000000 0.000000 -0.793367 0.195744 0.576414
-0.844329 0.000000 0.535826 -0.793367 0.195744 0.576414
-0.684548 0.000000 0.728968 -0.714867 0.195744 0.671304
0.000000 5.000000 0.000000 -0.714867 0.195744 0.671304
-0.770514 0.000000 0.637423 -0.714867 0.195744 0.671304
-0.587786 0.000000 0.809016 -0.625094 0.195744 0.755607
0.000000 5.000000 0.000000 -0.625094 0.195744 0.755607
-0.684548 0.000000 0.728968 -0.625094 0.195744 0.755607
-0.481755 0.000000 0.876306 -0.525462 0.195744 0.827994
0.000000 5.000000 0.000000 -0.525462 0.195744 0.827994
-0.587786 0.000000 0.809016 -0.525462 0.195744 0.827994
-0.368125 0.000000 0.929776 -0.417543 0.195744 0.887323
0.000000 5.000000 0.000000 -0.417543 0.195744 0.887323
-0.481755 0.000000 0.876306 -0.417543 0.195744 0.887323
-0.248691 0.000000 0.968583 -0.303040 0.195744 0.932658
0.000000 5.000000 0.000000 -0.303040 0.195744 0.932658
-0.368125 0.000000 0.929776 -0.303040 0.195744 0.932658
-0.125334 0.000000 0.992115 -0.183757 0.195744 0.963285
0.000000 5.000000 0.000000 -0.183757 0.195744 0.963285
-0.248691 0.000000 0.968583 -0.183757 0.195744 0.963285
-0.000001 0.000000 1.000000 -0.061577 0.195744 0.978720
0.000000 5.000000 0.000000 -0.061577 0.195744 0.978720
-0.125334 0.000000 0.992115 -0.061577 0.195744 0.978720
0.125332 0.000000 0.992115 0.061576 0.195744 0.978720
0.000000 5.000000 0.000000 0.061576 0.195744 0.978720
-0.000001 0.000000 1.000000 0.061576 0.195744 0.978720
0.248689 0.000000 0.968583 0.183756 0.195744 0.963285
0.000000 5.000000 0.000000 0.183756 0.195744 0.963285
0.125332 0.000000 0.992115 0.183756 0.195744 0.963285
0.368124 0.000000 0.929777 0.303039 0.195744 0.932659
0.000000 5.000000 0.000000 0.303039 0.195744 0.932659
0.248689 0.000000 0.968583 0.303039 0.195744 0.932659
0.481753 0.000000 0.876307 0.417542 0.195744 0.887323
0.000000 5.000000 0.000000 0.417542 0.195744 0.887323
0.368124 0.000000 0.929777 0.417542 0.195744 0.887323
0.587785 0.000000 0.809017 0.525461 0.195744 0.827995
0.000000 5.000000 0.000000 0.525461 0.195744 0.827995
0.481753 0.000000 0.876307 0.525461 0.195744 0.827995
0.684547 0.000000 0.728969 0.625093 0.195744 0.755608
0.000000 5.000000 0.000000 0.625093 0.195744 0.755608
0.587785 0.000000 0.809017 0.625093 0.195744 0.755608
0.770513 0.000000 0.637424 0.714866 0.195744 0.671305
0.000000 5.000000 0.000000 0.714866 0.195744 0.671305
0.684547 0.000000 0.728969 0.714866 0.195744 0.671305
0.844328 0.000000 0.535827 0.793366 0.195744 0.576415
0.000000 5.000000 0.000000 0.793366 0.195744 0.576415
0.770513 0.000000 0.637424 0.793366 0.195744 0.576415
0.904827 0.000000 0.425780 0.859354 0.195744 0.472435
0.000000 5.000000 0.000000 0.859354 0.195744 0.472435
0.844328 0.000000 0.535827 0.859354 0.195744 0.472435
0.951056 0.000000 0.309017 0.911790 0.195744 0.361003
0.000000 5.000000 0.000000 0.911790 0.195744 0.361003
0.904827 0.000000 0.425780 0.911790 0.195744 0.361003
0.982287 0.000000 0.187382 0.949846 0.195744 0.243880
0.000000 5.000000 0.000000 0.949846 0.195744 0.243880
0.951056 0.000000 0.309017 0.949846 0.195744 0.243880
0.998027 0.000000 0.062791 0.972922 0.195744 0.122909
0.000000 5.000000 0.000000 0.972922 0.195744 0.122909
0.982287 0.000000 0.187382 0.972922 0.195744 0.122909
0.998027 0.000000 -0.062790 0.980655 0.195744 0.000000
0.000000 5.000000 0.000000 0.980655 0.195744 0.000000
0.998027 0.000000 0.062791 0.980655 0.195744 0.000000
0.982287 0.000000 -0.187381 0.972922 0.195744 -0.122908
0.000000 5.000000 0.000000 0.972922 0.195744 -0.122908
0.998027 0.000000 -0.062790 0.972922 0.195744 -0.122908
0.951057 0.000000 -0.309017 0.949846 0.195744 -0.243879
0.000000 5.000000 0.000000 0.949846 0.195744 -0.243879
0.982287 0.000000 -0.187381 0.949846 0.195744 -0.243879
0.904827 0.000000 -0.425779 0.911790 0.195744 -0.361003
0.000000 5.000000 0.000000 0.911790 0.195744 -0.361003
0.951057 0.000000 -0.309017 0.911790 0.195744 -0.361003
0.844328 0.000000 -0.535827 0.859355 0.195744 -0.472434
0.000000 5.000000 0.000000 0.859355 0.195744 -0.472434
0.904827 0.000000 -0.425779 0.859355 0.195744 -0.472434
0.770513 0.000000 -0.637424 0.793367 0.195744 -0.576414
0.000000 5.000000 0.000000 0.793367 0.195744 -0.576414
0.844328 0.000000 -0.535827 0.793367 0.195744 -0.576414
0.684547 0.000000 -0.728969 0.714867 0.195744 -0.671304
0.000000 5.000000 0.000000 0.714867 0.195744 -0.671304
0.770513 0.000000 -0.637424 0.714867 0.195744 -0.671304
0.587785 0.000000 -0.809017 0.625093 0.195744 -0.755608
0.000000 5.000000 0.000000 0.625093 0.195744 -0.755608
0.684547 0.000000 -0.728969 0.625093 0.195744 -0.755608
0.481754 0.000000 -0.876307 0.525461 0.195744 -0.827994
0.000000 5.000000 0.000000 0.525461 0.195744 -0.827994
0.587785 0.000000 -0.809017 0.525461 0.195744 -0.827994
0.368125 0.000000 -0.929777 0.417543 0.195744 -0.887323
0.000000 5.000000 0.000000 0.417543 0.195744 -0.887323
0.481754 0.000000 -0.876307 0.417543 0.195744 -0.887323
0.248690 0.000000 -0.968583 0.303039 0.195744 -0.932658
0.000000 5.000000 0.000000 0.303039 0.195744 -0.932658
0.368125 0.000000 -0.929777 0.303039 0.195744 -0.932658
-0.125331 0.000000 -0.992115 -0.061574 0.195744 -0.978720
0.000000 5.000000 0.000000 -0.061574 0.195744 -0.978720
0.000000 0.000000 -1.000000 -0.061574 0.195744 -0.978720
0.125333 0.000000 -0.992115 0.183756 0.195744 -0.963285
0.000000 5.000000 0.000000 0.183756 0.195744 -0.963285
0.248690 0.000000 -0.968583 0.183756 0.195744 -0.963285
-0.125331 0.000000 -0.992115 -0.000000 -1.000000 0.000000
0.000000 0.000000 -1.000000 -0.000000 -1.000000 0.000000
0.125333 0.000000 -0.992115 -0.000000 -1.000000 0.000000
0.248690 0.000000 -0.968583 0.000000 -1.000000 0.000000
0.368125 0.000000 -0.929777 0.000000 -1.000000 0.000000
0.481754 0.000000 -0.876307 0.000000 -1.000000 0.000000
0.587785 0.000000 -0.809017 0.000000 -1.000000 0.000000
0.684547 0.000000 -0.728969 0.000000 -1.000000 0.000000
0.770513 0.000000 -0.637424 0.000000 -1.000000 0.000000
0.844328 0.000000 -0.535827 0.000000 -1.000000 0.000000
0.904827 0.000000 -0.425779 0.000000 -1.000000 0.000000
0.951057 0.000000 -0.309017 0.000000 -1.000000 0.000000
0.982287 0.000000 -0.187381 0.000000 -1.000000 0.000000
0.998027 0.000000 -0.062790 0.000000 -1.000000 -0.000000
0.998027 0.000000 0.062791 0.000000 -1.000000 -0.000000
0.982287 0.000000 0.187382 0.000000 -1.000000 0.000000
0.951056 0.000000 0.309017 0.000000 -1.000000 0.000000
0.904827 0.000000 0.425780 0.000000 -1.000000 0.000000
0.844328 0.000000 0.535827 0.000000 -1.000000 0.000000
0.770513 0.000000 0.637424 0.000000 -1.000000 0.000000
0.684547 0.000000 0.728969 0.000000 -1.000000 0.000000
0.587785 0.000000 0.809017 0.000000 -1.000000 0.000000
0.481753 0.000000 0.876307 0.000000 -1.000000 0.000000
0.368124 0.000000 0.929777 0.000000 -1.000000 0.000000
0.248689 0.000000 0.968583 0.000000 -1.000000 0.000000
0.125332 0.000000 0.992115 0.000000 -1.000000 0.000000
-0.000001 0.000000 1.000000 0.000000 -1.000000 0.000000
-0.125334 0.000000 0.992115 0.000000 -1.000000 0.000000
-0.248691 0.000000 0.968583 0.000000 -1.000000 0.000000
-0.368125 0.000000 0.929776 0.000000 -1.000000 0.000000
-0.481755 0.000000 0.876306 0.000000 -1.000000 0.000000
-0.587786 0.000000 0.809016 0.000000 -1.000000 0.000000
-0.684548 0.000000 0.728968 0.000000 -1.000000 0.000000
-0.770514 0.000000 0.637423 0.000000 -1.000000 0.000000
-0.844329 0.000000 0.535826 0.000000 -1.000000 0.000000
-0.904828 0.000000 0.425778 0.000000 -1.000000 0.000000
-0.951057 0.000000 0.309016 0.000000 -1.000000 0.000000
-0.982288 0.000000 0.187380 0.000000 -1.000000 0.000000
-0.998027 0.000000 0.062789 0.000000 -1.000000 0.000000
-0.998027 0.000000 -0.062792 0.000000 -1.000000 0.000000
-0.982287 0.000000 -0.187383 0.000000 -1.000000 0.000000
-0.951056 0.000000 -0.309019 0.000000 -1.000000 0.000000
-0.904826 0.000000 -0.425781 0.000000 -1.000000 0.000000
-0.844327 0.000000 -0.535828 0.000000 -1.000000 0.000000
-0.770512 0.000000 -0.637425 0.000000 -1.000000 0.000000
-0.684546 0.000000 -0.728970 0.000000 -1.000000 0.000000
-0.587784 0.000000 -0.809018 0.000000 -1.000000 0.000000
-0.481752 0.000000 -0.876308 0.000000 -1.000000 0.000000
-0.368123 0.000000 -0.929777 0.000000 -1.000000 0.000000
-0.248688 0.000000 -0.968584 0.000000 -1.000000 0.000000
3 0 1 2
3 3 4 5
3 6 7 8
3 9 10 11
3 12 13 14
3 15 16 17
3 18 19 20
3 21 22 23
3 24 25 26
3 27 28 29
3 30 31 32
3 33 34 35
3 36 37 38
3 39 40 41
3 42 43 44
3 45 46 47
3 48 49 50
3 51 52 53
3 54 55 56
3 57 58 59
3 60 61 62
3 63 64 65
3 66 67 68
3 69 70 71
3 72 73 74
3 75 76 77
3 78 79 80
3 81 82 83
3 84 85 86
3 87 88 89
3 90 91 92
3 93 94 95
3 96 97 98
3 99 100 101
3 102 103 104
3 105 106 107
3 108 109 110
3 111 112 113
3 114 115 116
3 117 118 119
3 120 121 122
3 123 124 125
3 126 127 128
3 129 130 131
3 132 133 134
3 135 136 137
3 138 139 140
3 141 142 143
3 144 145 146
3 147 148 149
3 150 151 152
3 152 153 154
3 154 155 156
3 156 157 158
3 158 159 160
3 160 161 162
3 162 163 164
3 164 165 166
3 166 167 168
3 168 169 170
3 170 171 172
3 172 173 174
3 174 175 176
3 176 177 178
3 178 179 180
3 180 181 182
3 182 183 184
3 184 185 186
3 186 187 188
3 188 189 190
3 190 191 192
3 192 193 194
3 194 195 196
3 196 197 198
3 198 199 150
3 150 152 154
3 154 156 158
3 158 160 162
3 162 164 166
3 166 168 170
3 170 172 174
3 174 176 178
3 178 180 182
3 182 184 186
3 186 188 190
3 190 192 194
3 194 196 198
3 198 150 154
3 154 158 162
3 162 166 170
3 170 174 178
3 178 182 186
3 186 190 194
3 194 198 154
3 154 162 170
3 170 178 186
3 186 194 154
3 154 170 186
